<?xml version="1.0" standalone="no"?>
<!DOCTYPE svg PUBLIC "-//W3C//DTD SVG 20010904//EN"
 "http://www.w3.org/TR/2001/REC-SVG-20010904/DTD/svg10.dtd">
<svg version="1.0" xmlns="http://www.w3.org/2000/svg"
 width="260.000000pt" height="260.000000pt" viewBox="0 0 260.000000 260.000000"
 preserveAspectRatio="xMidYMid meet">
<metadata>
Created by potrace 1.14, written by Peter Selinger 2001-2017
</metadata>
<g transform="translate(0.000000,260.000000) scale(0.100000,-0.100000)"
fill="#000000" stroke="none">
<path d="M1250 2110 c-41 -3 -212 -4 -380 -3 -310 2 -377 -4 -418 -35 -43 -33
-36 -86 41 -327 49 -153 70 -233 87 -340 40 -245 101 -422 183 -530 84 -111
234 -222 367 -272 112 -42 148 -49 285 -58 146 -10 219 -15 265 -19 129 -11
197 -18 220 -22 14 -2 66 -7 116 -10 90 -7 91 -6 123 22 24 22 32 38 33 64 1
33 -7 120 -16 166 -2 11 -7 54 -11 95 -3 41 -8 94 -11 119 -2 25 -5 117 -6
205 -2 227 -24 336 -94 476 -82 165 -240 318 -412 400 -113 53 -244 78 -372
69z m-376 -235 c391 -142 669 -365 908 -730 59 -91 154 -256 173 -303 20 -47
22 -101 4 -113 -39 -25 -79 7 -141 116 -233 405 -492 670 -821 839 -45 23
-104 50 -132 60 -87 32 -156 68 -186 99 -28 28 -29 30 -13 48 27 30 97 24 208
-16z"/>
</g>
</svg>
